<svg width="20" height="20" viewBox="0 0 20 20" fill="none" xmlns="http://www.w3.org/2000/svg">
<g clip-path="url(#clip0_49_2292)">
<path fill-rule="evenodd" clip-rule="evenodd" d="M10 20C4.4775 20 0 15.5225 0 10C0 4.4775 4.4775 0 10 0C15.5225 0 20 4.4775 20 10C20 15.5225 15.5225 20 10 20ZM1.66667 10C1.66667 14.6025 5.3975 18.3333 10 18.3333C14.6025 18.3333 18.3333 14.6025 18.3333 10C18.3333 5.3975 14.6025 1.66667 10 1.66667C5.3975 1.66667 1.66667 5.3975 1.66667 10ZM13.5775 9.41083L10.8333 12.155V5H9.16667V12.155L6.4225 9.41083L5.24417 10.5892L9.41083 14.7558L10 15.345L10.5892 14.7558L14.7558 10.5892L13.5775 9.41083Z" fill="black"/>
</g>
<defs>
<clipPath id="clip0_49_2292">
<rect width="20" height="20" fill="white"/>
</clipPath>
</defs>
</svg>
